<svg width="512" height="512" xmlns="http://www.w3.org/2000/svg" class="svg-inline--fa fa-search fa-w-16">
 <g>
  <title>background</title>
  <rect x="-1" y="-1" width="653.451304" height="653.451304" id="canvas_background" fill="none"/>
 </g>

 <g>
  <title>Layer 1</title>
  <rect stroke="null" fill="#000000" stroke-width="NaN" x="89.956279" y="124.230622" width="221.391667" height="320.636178" id="svg_2" rx="17"/>
  <rect fill="#ffffff" stroke-width="NaN" x="103.061631" y="136.757303" width="194.671995" height="296.943866" id="svg_5" rx="5" stroke="#000000"/>
  <rect fill="#000000" stroke-width="null" x="116.675952" y="402.87873" width="167.952299" height="21.630219" id="svg_10" rx="5" stroke="null"/>
  <rect stroke="null" fill="#000000" stroke-width="null" stroke-opacity="null" fill-opacity="null" x="116.675962" y="313.813122" width="165.407557" height="80.159047" id="svg_12"/>
  <ellipse fill="#000000" stroke="null" stroke-width="null" stroke-opacity="null" fill-opacity="null" cx="158.664034" cy="192.938368" id="svg_14"/>
  <ellipse fill="#000000" stroke-width="null" stroke-opacity="null" fill-opacity="null" cx="123.673977" cy="190.046626" id="svg_15" rx="10.815111" ry="11.104284" stroke="null"/>
  <ellipse fill="#000000" stroke-width="null" stroke-opacity="null" fill-opacity="null" cx="123.673977" cy="165.871675" id="svg_16" rx="10.815111" ry="11.104284" stroke="null"/>
  <path stroke="null" id="svg_1" d="m466.303947,322.570941l-56.123134,-55.923702c-2.53314,-2.524139 -5.966953,-3.926438 -9.569642,-3.926438l-9.175598,0c15.536595,-19.800468 24.768485,-44.705307 24.768485,-71.797732c0,-64.449683 -52.407862,-116.671314 -117.087381,-116.671314s-117.087381,52.221632 -117.087381,116.671314s52.407862,116.671314 117.087381,116.671314c27.189041,0 52.182694,-9.199084 72.053773,-24.68047l0,9.142992c0,3.589887 1.4073,7.011497 3.940441,9.535636l56.123134,55.923702c5.291449,5.272646 13.847835,5.272646 19.082992,0l15.930639,-15.87403c5.291449,-5.272646 5.291449,-13.798627 0.056292,-19.071273zm-167.187271,-59.850141c-39.798451,0 -72.053773,-32.084611 -72.053773,-71.797732c0,-39.657029 32.19903,-71.797732 72.053773,-71.797732c39.798451,0 72.053773,32.084611 72.053773,71.797732c0,39.657029 -32.19903,71.797732 -72.053773,71.797732z" fill="currentColor"/>
  <rect id="svg_3" height="71.231998" width="156.522012" y="318.449384" x="120.927301" stroke-width="null" fill="#ffffff"/>
  <ellipse stroke="null" ry="9.036241" rx="9.036242" id="svg_6" cy="165.978116" cx="123.659193" stroke-width="null" fill="#ffffff"/>
  <ellipse stroke="null" ry="9.202908" rx="8.869575" id="svg_8" cy="189.951024" cx="123.68624" stroke-width="null" fill="#ffffff"/>
 </g>
</svg>